<?xml version="1.0" encoding="utf-8"?>
<!-- Generator: Adobe Illustrator 15.1.0, SVG Export Plug-In . SVG Version: 6.00 Build 0)  -->
<!DOCTYPE svg PUBLIC "-//W3C//DTD SVG 1.1//EN" "http://www.w3.org/Graphics/SVG/1.1/DTD/svg11.dtd">
<svg version="1.1" id="Layer_1" xmlns="http://www.w3.org/2000/svg" xmlns:xlink="http://www.w3.org/1999/xlink" x="0px" y="0px"
	 width="240px" height="73px" viewBox="0 0 240 73" enable-background="new 0 0 240 73" xml:space="preserve">
<g>
	<path fill="#B00A0F" d="M89.029,43.202V29.144l-4.445,14.058h-3.192l-4.369-14.02v14.02h-4.179V16.606h4.179l5.965,17.59
		l6.041-17.59h4.179v26.596H89.029z"/>
	<path fill="#B00A0F" d="M112.97,43.202c-6.042,0.569-14.628,1.709-14.628-6.422v-3.152c0-2.735,1.064-4.293,2.622-5.053
		c2.698-1.33,6.497-0.114,7.827,0.608c0-2.09-2.166-2.432-4.065-2.432l0.342-2.888c7.903,0,7.903,4.37,7.903,8.017L112.97,43.202
		L112.97,43.202z M108.79,33.627c-1.406-0.988-6.231-2.735-6.231,0.531v2.09c0,2.469,1.634,4.064,6.231,3.268V33.627z"/>
	<path fill="#B00A0F" d="M129.766,42.973c-2.699,0.723-5.662,0.875-7.979,0.152c-3-0.988-4.254-2.926-4.254-6.764v-4.863
		c0-7.408,6.268-9.194,12.157-6.458l-1.14,3.609c-4.521-1.786-6.84,0.038-6.84,2.622v5.507c0,3.648,5.586,2.66,6.916,2.09
		L129.766,42.973z"/>
	<path fill="#B00A0F" d="M137.746,35.793c0.227,2.203,1.861,3.723,4.445,3.723c3.418,0,4.521-2.014,4.521-3.305
		c0-7.447-12.804-4.826-12.804-13.412c0-3.192,2.697-6.573,8.586-6.573c2.622,0,4.027,0.418,5.548,1.14
		c0,0.038-0.874,2.584-1.33,3.952c-1.405-0.456-2.546-0.836-4.179-0.836c-3.078,0-4.256,1.254-4.104,2.698
		c0.418,3.686,12.879,3.571,12.879,12.651c0,4.142-2.584,7.789-9.08,7.789c-5.89,0-8.854-3.8-8.967-7.182L137.746,35.793z"/>
	<path fill="#B00A0F" d="M161.229,43.695c-4.521-0.075-5.774-2.547-5.774-5.51v-21.58h4.256v7.561h3.608l-0.911,3.914h-2.697v10.104
		c0,1.861,1.254,2.166,2.772,2.166L161.229,43.695z"/>
	<path fill="#B00A0F" d="M180.684,36.211c0,3.875-2.014,7.369-7.029,7.369c-4.977,0-7.143-3.494-7.143-7.369v-5.015
		c0-4.788,2.545-7.447,7.143-7.447c4.408,0,7.029,2.85,7.029,7.447V36.211z M176.542,31.196c0-3.078-1.786-3.23-2.888-3.23
		c-1.293,0-2.963,0.456-2.963,3.23v5.394c0,2.203,1.404,2.887,2.963,2.887c1.558,0,2.888-0.834,2.888-2.887V31.196z"/>
	<path fill="#B00A0F" d="M185.512,43.202V24.167h3.875l0.303,0.152c2.66-0.912,4.445-0.418,6.459,0l-0.986,4.065
		c-2.546-1.292-5.473-0.076-5.473,2.584v12.233L185.512,43.202L185.512,43.202z"/>
	<path fill="#B00A0F" d="M199.418,18.43c0-1.178,1.064-2.204,2.279-2.204c1.178,0,2.203,1.026,2.203,2.204
		c0,1.216-1.025,2.28-2.203,2.28C200.482,20.709,199.418,19.646,199.418,18.43z M199.494,43.202V24.167h4.18v19.035H199.494z"/>
	<path fill="#B00A0F" d="M212.869,36.477v1.062c0,2.471,2.395,3.154,6.99,0.723l1.521,3.609c-1.787,1.102-4.104,1.748-6.27,1.785
		c-3.762,0.115-6.459-1.596-6.459-5.547v-7.789c0-4.18,2.85-6.497,6.99-6.497c4.217,0,6.688,2.395,6.688,6.383v5.775L212.869,36.477
		z M218.113,30.284c0-1.596-1.178-2.356-2.508-2.356c-2.129,0-2.736,1.482-2.736,2.432v2.279l5.244-0.341V30.284L218.113,30.284z"/>
	<path fill="#B00A0F" d="M230.121,37.958c0,0.687,0.684,1.899,2.85,1.899c1.823,0,2.621-1.102,2.621-2.09
		c0-3.988-8.549-1.861-9.193-8.434c-0.229-2.394,1.48-5.623,6.496-5.623c2.697,0,4.256,1.102,4.256,1.102l-1.217,3.875
		c0,0-0.873-0.874-3.039-0.874c-2.354,0-2.09,1.14-1.977,1.596c0.494,2.204,9.082,1.595,9.082,8.434c0,2.963-2.09,5.928-7.029,5.928
		c-4.521,0-6.916-2.547-7.029-5.396L230.121,37.958z"/>
</g>
<path fill="#B00A0F" d="M30,0C13.432,0,0,13.432,0,30c0,16.568,13.432,30,30,30c16.569,0,30-13.432,30-30C60,13.432,46.569,0,30,0z
	 M44,48.5c0,0.275-0.224,0.5-0.5,0.5c0,0-12-8-13.5-8s-13.5,8-13.5,8c-0.276,0-0.5-0.225-0.5-0.5v-37c0-0.276,0.224-0.5,0.5-0.5h27
	c0.276,0,0.5,0.224,0.5,0.5V48.5z"/>
</svg>
